<svg version="1.1" id="Layer_1" xmlns="http://www.w3.org/2000/svg" xmlns:xlink="http://www.w3.org/1999/xlink" x="0px" y="0px"
	 width="100%" viewBox="0 0 288 288" enable-background="new 0 0 288 288" xml:space="preserve">
<path fill="#000000" opacity="1.000000" stroke="none" 
	d="
M289.000000,125.539368 
	C287.205353,124.615738 287.386200,122.412308 286.846832,120.552155 
	C276.049805,83.315437 253.610291,55.308964 219.775589,36.573776 
	C207.038849,29.521097 193.245224,25.061552 178.870056,22.545153 
	C178.094467,22.409386 177.290283,22.436863 175.981094,22.356556 
	C177.202255,24.757339 179.177994,24.685257 180.782227,25.116589 
	C220.727325,35.856709 250.147186,59.428421 268.164673,96.847015 
	C270.984344,102.702881 273.105469,108.853287 274.747162,115.154709 
	C275.293549,117.251945 275.774445,119.344978 274.335754,121.645088 
	C271.348236,120.757721 271.363525,117.940369 270.612854,115.805649 
	C258.696381,81.918221 237.458450,55.987659 205.084427,39.881863 
	C175.985794,25.405539 145.453796,22.407047 114.309090,31.562387 
	C102.431137,35.054047 89.896492,39.252209 80.538620,47.307308 
	C58.144855,66.583496 39.435619,88.966293 31.241743,118.356155 
	C29.991249,122.841431 28.645195,127.300232 27.418840,131.791885 
	C27.211601,132.550934 27.389587,133.415161 27.389587,134.630875 
	C32.534023,133.684479 31.421169,137.234131 31.246590,139.787582 
	C30.025585,157.646530 32.098217,174.997375 38.976418,191.634430 
	C46.123795,208.922546 56.758488,223.572037 71.768890,234.915573 
	C75.195602,237.505203 75.149338,237.566422 73.301811,240.523788 
	C93.878670,256.408386 117.594887,263.115570 143.123276,264.754761 
	C117.404480,266.556427 94.213295,258.919037 72.407104,246.127182 
	C104.216927,271.055511 140.228104,277.937286 178.884964,268.170349 
	C217.740005,258.353302 245.182190,233.660233 262.945953,197.747589 
	C258.000549,217.338181 246.090591,232.660065 233.522507,247.683365 
	C241.668869,242.466858 247.783554,235.331161 253.698181,228.031677 
	C259.604553,220.742386 264.538483,212.752533 269.956848,205.274384 
	C255.582260,241.132172 229.353943,264.989655 193.574799,279.084198 
	C212.235428,277.839417 242.597778,257.471008 262.409729,229.943512 
	C279.943329,205.581604 286.866028,178.529144 284.049133,148.631363 
	C284.643799,148.672668 285.238464,148.713959 285.833130,148.755249 
	C286.275909,153.174881 287.270996,157.620728 287.062714,162.009460 
	C286.295563,178.175049 284.718628,194.305176 277.318970,209.047562 
	C256.429504,250.665695 224.064590,277.839233 177.806168,287.233673 
	C176.332687,287.532928 174.832825,287.634796 173.276825,288.763550 
	C158.645767,289.000000 144.291550,289.000000 129.218201,288.719604 
	C124.838829,286.117676 120.662338,287.837311 116.787750,286.918274 
	C103.762375,283.828735 91.372353,279.033752 79.305916,273.331329 
	C78.268471,272.841064 76.820618,272.302582 76.471260,271.425079 
	C74.531189,266.551880 69.562706,265.527344 66.199211,262.735168 
	C64.521210,262.855469 66.179916,264.779297 64.028908,264.903503 
	C57.537060,260.703979 50.914555,255.742950 44.947277,249.956970 
	C24.574591,230.203339 10.959755,206.610107 4.788614,178.827866 
	C4.294413,176.602982 4.346343,173.975327 1.000000,174.000000 
	C1.000000,155.645767 1.000000,137.291550 1.297148,118.561462 
	C4.027797,118.782791 4.293108,117.048286 4.714355,115.366173 
	C5.359799,112.788826 6.019177,110.209694 6.815096,107.676079 
	C22.375336,58.143902 54.648148,24.985952 103.966507,8.506487 
	C116.974373,4.159978 130.516571,2.759609 144.000000,1.000000 
	C149.688034,1.000000 155.376083,1.000000 161.861938,1.179724 
	C164.271866,1.757679 165.863739,2.362836 167.499146,2.522795 
	C188.683380,4.594815 208.456787,11.134453 227.097015,21.263107 
	C228.420868,21.982462 230.324432,22.383198 230.095520,25.710848 
	C213.470840,16.650158 196.445206,9.859645 178.226440,6.512737 
	C159.698029,3.108947 141.097076,3.318197 122.631577,6.529102 
	C106.990013,9.248965 77.087807,23.544481 72.714409,30.127134 
	C83.924637,25.291613 93.352379,17.714304 105.594879,17.910437 
	C98.605064,24.807425 88.938034,27.294569 81.142387,33.151821 
	C82.655884,33.939899 83.422119,33.067513 84.238060,32.631344 
	C103.817841,22.164780 124.859474,16.542871 146.887268,15.920744 
	C188.246002,14.752654 223.742996,29.442230 253.661041,57.825096 
	C270.212280,73.527054 281.080994,92.846077 289.000000,114.000000 
	C289.000000,117.692909 289.000000,121.385818 289.000000,125.539368 
M36.884808,64.546967 
	C37.281727,63.335007 39.369694,62.557178 37.403877,60.197872 
	C29.291393,70.102180 22.795546,80.522964 19.415848,92.734947 
	C25.124977,83.525551 29.953243,73.798935 36.884808,64.546967 
M37.061203,236.430344 
	C32.453346,232.551895 29.929783,226.948944 25.907124,222.586319 
	C30.872007,232.565796 43.157711,246.539444 51.377232,251.482315 
	C46.384388,246.183777 41.997299,241.528076 37.061203,236.430344 
M39.882629,57.938679 
	C45.260868,56.528679 46.286003,50.792271 50.025223,47.735760 
	C45.695667,49.983105 42.580986,53.493008 39.882629,57.938679 
z"/>
<path fill="#000000" opacity="1.000000" stroke="none" 
	d="
M92.995758,85.728882 
	C121.134117,94.267128 146.252289,108.608002 172.294907,120.875183 
	C189.324234,128.896713 206.435654,136.764008 225.153992,140.126984 
	C230.706909,141.124634 236.297958,142.225647 242.011719,141.397049 
	C243.011597,141.252075 244.020447,141.182068 244.972214,142.971436 
	C241.397675,145.247086 237.390335,145.174881 233.476227,145.022034 
	C220.367233,144.510086 207.880554,141.305054 195.807785,136.225128 
	C191.887558,134.575592 188.003036,132.601547 182.381943,131.936020 
	C186.745651,140.033936 189.463898,147.767548 191.033218,156.102005 
	C193.802979,150.599655 197.114548,145.789856 198.687805,139.407410 
	C210.507904,143.515656 222.684769,146.353333 235.778168,147.784561 
	C232.450699,149.571106 224.899017,149.831924 219.465820,148.998337 
	C216.318649,148.515488 212.395432,146.021057 210.125443,148.991028 
	C208.187317,151.526764 211.009659,154.936203 211.998566,157.830688 
	C217.002884,172.478241 222.197678,187.060699 227.321915,201.667297 
	C228.641541,205.428848 229.861389,209.257462 234.078873,211.635910 
	C227.729065,211.635910 221.379272,211.635910 214.987595,211.635910 
	C217.373840,207.571136 216.152451,197.180161 212.936188,193.668991 
	C211.773605,192.399811 210.358429,191.858597 208.936569,192.843536 
	C203.232437,196.794739 197.489899,195.104279 191.726959,193.149658 
	C188.547989,192.071426 185.228607,191.669739 182.912292,194.412338 
	C180.368149,197.424667 179.260361,201.170898 180.520844,205.176590 
	C181.352570,207.819763 183.275696,209.604950 185.914505,211.233780 
	C180.408844,212.458939 175.104797,213.070663 168.237518,211.721451 
	C175.514297,207.841476 176.213364,201.282944 178.284958,195.555786 
	C179.899323,191.092651 178.104279,189.161392 173.793213,190.751953 
	C165.416122,193.842621 156.779907,193.863007 148.138489,193.347519 
	C142.897644,193.034882 137.555038,194.606628 131.359161,192.534378 
	C139.653702,187.329453 137.453934,179.612366 137.621994,172.548676 
	C137.695084,169.476227 136.614319,168.084610 132.995148,168.855560 
	C125.011078,170.556396 121.964317,168.759918 118.329102,161.318344 
	C115.530045,155.588409 114.317848,149.338135 112.299789,143.352951 
	C110.023102,136.600754 107.724197,134.539505 103.350121,135.192612 
	C97.495819,136.066757 92.119530,141.748810 92.061493,147.195908 
	C92.024216,150.694092 92.132538,154.193985 92.085426,157.691895 
	C92.025940,162.108627 92.955910,166.011597 97.403198,168.653778 
	C90.124649,169.310516 83.085686,170.267410 74.249634,168.965805 
	C81.628342,165.650299 81.016472,160.093994 81.042580,154.871536 
	C81.107559,141.875717 81.064468,128.879181 81.015800,115.883125 
	C80.997780,111.071884 81.086723,106.176521 76.494400,102.226608 
	C89.991737,102.226608 103.489067,102.226608 116.772026,102.226608 
	C117.276421,100.630287 116.527679,100.328903 115.990555,100.065010 
	C104.884331,94.608452 93.450165,90.113152 80.982071,89.056297 
	C73.014381,88.380913 66.569916,91.037575 62.643433,98.430878 
	C61.751614,100.110115 60.758938,101.751328 58.520355,101.373337 
	C56.118919,100.967842 56.229622,98.922485 55.961174,97.098412 
	C55.821999,96.152710 55.578617,94.931404 54.923603,94.399689 
	C50.618832,90.905228 52.860611,87.940620 55.690624,85.259338 
	C59.958881,81.215378 65.245628,79.305130 71.049721,78.822624 
	C72.018379,78.742096 73.476227,78.678581 73.935463,79.239609 
	C78.867348,85.264702 86.589027,82.940559 92.995758,85.728882 
M178.714691,150.938599 
	C175.304276,130.506393 167.048157,127.872185 153.028091,128.915344 
	C150.036667,129.137924 148.341141,130.281830 148.340988,133.444611 
	C148.340164,150.935272 148.324097,168.425919 148.310379,185.916580 
	C148.308777,187.962250 148.951233,189.312912 151.250824,189.816803 
	C163.680054,192.540268 172.846344,187.279190 176.968964,175.101639 
	C179.550049,167.477478 179.102676,159.674759 178.714691,150.938599 
M157.574829,118.998466 
	C147.313797,114.038422 137.272964,108.591209 126.515358,104.340523 
	C126.132126,106.268005 127.246902,106.981560 127.809860,107.925545 
	C131.732239,114.502708 130.076416,122.016129 123.684898,126.253708 
	C122.301392,127.170982 120.763458,127.851822 119.341423,128.715302 
	C117.255928,129.981659 116.653053,131.685638 118.293747,133.691452 
	C121.130463,137.159454 122.067764,141.413452 123.454063,145.505402 
	C125.214050,150.700348 126.586349,156.058731 129.349747,160.862030 
	C130.554764,162.956558 132.006149,164.664337 134.930161,163.943741 
	C137.876923,163.217514 137.659286,160.986938 137.667892,158.824280 
	C137.691727,152.826691 137.543076,146.824860 137.722610,140.832489 
	C137.886063,135.377472 137.514450,130.227402 131.468155,125.965706 
	C143.766586,124.990784 154.905716,126.456543 166.752029,124.991966 
	C163.817398,121.497635 160.719208,120.912750 157.574829,118.998466 
M118.519081,110.945457 
	C116.806190,107.716377 113.879204,106.053123 110.479652,105.701859 
	C106.196960,105.259346 101.854919,105.342880 97.537483,105.300011 
	C93.867905,105.263580 92.056099,107.125809 92.083397,110.853882 
	C92.133331,117.673759 92.069870,124.494530 92.133469,131.314194 
	C92.146965,132.761124 92.061195,134.375183 94.400467,135.739929 
	C101.803047,131.008530 110.516350,127.523315 116.772255,120.371834 
	C118.866493,117.977791 120.223305,115.017258 118.519081,110.945457 
M204.339783,168.050797 
	C202.447891,163.096939 201.305710,157.795517 198.417664,152.958817 
	C197.243271,153.908463 196.690277,154.136826 196.508804,154.534683 
	C192.843231,162.569962 190.535294,171.094437 187.641449,179.407806 
	C186.978424,181.312561 188.115799,183.163345 189.897217,183.115952 
	C195.074936,182.978180 199.505478,185.637833 204.377533,186.418533 
	C208.270721,187.042374 209.908493,184.910721 208.741257,181.083221 
	C207.481033,176.950714 205.982285,172.890945 204.339783,168.050797 
z"/>
<path fill="#000000" opacity="1.000000" stroke="none" 
	d="
M137.727539,214.338623 
	C114.759056,204.008926 92.215797,193.639069 67.892876,187.954376 
	C61.186436,186.386978 54.406052,186.051483 47.566208,186.103409 
	C45.783173,186.116943 43.909618,186.627228 41.919872,185.329041 
	C43.986324,182.748291 46.930542,183.136459 49.506718,182.902054 
	C62.221596,181.745132 74.285660,184.995819 86.259735,188.643967 
	C107.345718,195.068253 127.181732,204.595200 147.310532,213.387161 
	C162.576736,220.055222 177.935379,226.476379 194.173431,230.431396 
	C199.786911,231.798630 205.376724,233.189209 211.372284,232.003387 
	C217.420380,230.807159 221.790527,227.851364 224.513641,222.397064 
	C225.507889,220.405670 226.507874,218.021423 229.226303,219.352676 
	C231.808182,220.617081 230.927216,223.111542 230.018478,225.078812 
	C226.368439,232.980621 219.731293,236.586304 211.405579,237.333572 
	C199.771072,238.377823 189.077301,234.330261 178.374146,230.691025 
	C164.653793,226.025848 151.305893,220.394989 137.727539,214.338623 
z"/>
<path fill="#000000" opacity="1.000000" stroke="none" 
	d="
M183.418488,79.529510 
	C187.696304,83.937263 188.134384,87.038643 185.191162,90.070915 
	C182.568939,92.772507 178.678101,92.800018 175.757965,90.236359 
	C173.952820,88.651566 173.303421,86.889809 175.262222,85.182220 
	C177.717865,83.041504 178.587540,78.701691 183.418488,79.529510 
z"/>
<path fill="#000000" opacity="1.000000" stroke="none" 
	d="
M122.932297,61.166542 
	C119.716782,62.556412 116.935356,62.622532 115.136703,59.758156 
	C114.089684,58.090759 116.563980,49.610882 118.004379,49.111046 
	C120.280258,48.321281 122.321815,49.232639 123.993797,50.696350 
	C126.019608,52.469810 126.850876,54.774254 125.958443,57.455421 
	C125.473953,58.910976 124.579773,60.106972 122.932297,61.166542 
z"/>
<path fill="#000000" opacity="1.000000" stroke="none" 
	d="
M101.697784,50.099777 
	C101.769966,53.213276 99.868477,55.851791 101.749191,58.763229 
	C98.687141,60.316181 96.004974,59.023674 92.764427,59.027466 
	C93.059875,54.839279 90.735222,50.239075 94.203903,47.244576 
	C96.318108,45.419388 100.032341,46.139717 101.697784,50.099777 
z"/>
<path fill="#000000" opacity="1.000000" stroke="none" 
	d="
M145.235046,69.696114 
	C143.627289,65.478836 139.361908,68.836800 136.890778,66.169281 
	C138.958145,62.469219 142.214035,59.993736 145.302948,57.387951 
	C145.631088,57.111141 146.357529,56.940254 146.707245,57.111721 
	C150.346924,58.896351 149.221176,62.348312 148.773514,64.997177 
	C148.488220,66.685120 150.704620,71.193825 145.235046,69.696114 
z"/>
<path fill="#000000" opacity="1.000000" stroke="none" 
	d="
M201.220734,104.941116 
	C198.979385,106.806984 197.009857,108.497086 195.037918,110.189247 
	C192.491623,108.762474 189.990173,106.800743 190.895081,104.413887 
	C192.190613,100.996811 195.810379,99.125977 199.066071,97.627129 
	C201.121109,96.681030 202.079453,99.129601 203.146683,100.504051 
	C204.893753,102.754082 204.033234,104.115997 201.220734,104.941116 
z"/>
<path fill="#000000" opacity="1.000000" stroke="none" 
	d="
M61.578339,180.426025 
	C58.481464,180.068268 55.627010,180.818588 52.772419,179.173569 
	C60.396751,175.633881 81.749603,179.444016 87.111320,185.553329 
	C78.651131,184.384567 70.523621,181.375565 61.578339,180.426025 
z"/>
<path fill="#000000" opacity="1.000000" stroke="none" 
	d="
M214.051453,123.433044 
	C216.185089,123.606216 217.628052,124.126869 217.441544,126.707031 
	C214.201294,128.327835 210.624481,128.410217 207.022614,128.325607 
	C206.013306,128.301895 204.786087,128.181427 204.456650,127.169716 
	C203.182053,123.255219 207.148575,121.979240 208.634949,119.457008 
	C209.482285,118.019142 210.566223,115.957809 212.801010,116.773674 
	C214.246338,117.301323 214.369873,118.754440 213.505981,120.112755 
	C212.780319,121.253716 211.897629,122.414955 214.051453,123.433044 
z"/>
<path fill="#000000" opacity="1.000000" stroke="none" 
	d="
M232.203278,227.604279 
	C235.492142,228.086716 234.662140,229.947632 233.848068,231.653854 
	C231.356369,236.876328 223.259735,241.156067 216.475693,240.331451 
	C223.689926,238.512726 227.317657,232.553757 232.203278,227.604279 
z"/>
</svg>